<svg xmlns="http://www.w3.org/2000/svg" viewBox="0 0 80 80">
  <path fill="none" stroke="#000" stroke-width=".5" d="M13.18 47.02h53.64M13.18 32.98h53.64M6.22 40L40 6.37 73.78 40 40 73.63zM.39 40L40 .56 79.61 40 40 79.44z"/>
  <path d="M41.64 14.15a2.71 3.28 30 0 0-3.99 1.49 2.71 3.28 30 0 0 .22 3.8c.03-.39.12-.84.37-1.27.31-.5 1.03-.97 1.72-1.44.35-.24.7-.47.97-.7.28-.21.49-.42.57-.57.23-.45.2-.94.15-1.3a2.71 3.28 30 0 0-.01 0zm.44.34c0 .36-.03.77-.23 1.16-.13.25-.37.47-.67.7-.3.23-.64.47-.99.71-.7.47-1.4.98-1.6 1.32-.3.5-.34 1-.33 1.38a2.71 3.28 30 0 0 .1.07 2.71 3.28 30 0 0 3.99-1.48 2.71 3.28 30 0 0-.27-3.86z"/>
  <g style="line-height:125%;-inkscape-font-specification:'Roboto Condensed, Light';font-variant-ligatures:normal;font-variant-caps:normal;font-variant-numeric:normal;font-feature-settings:normal;text-align:center" aria-label="HIPSTER" font-family="Roboto Condensed" font-size="14" font-weight="300" letter-spacing=".19" text-anchor="middle" word-spacing="0">
    <path style="-inkscape-font-specification:'Roboto Condensed, Light';font-variant-ligatures:normal;font-variant-caps:normal;font-variant-numeric:normal;font-feature-settings:normal;text-align:center" d="M22.27 45.24h-1.25v-4.6H17v4.6h-1.25v-9.95H17v4.27h4V35.3h1.26zM25.95 45.24H24.7v-9.95h1.25zM29.59 41.34v3.9h-1.26v-9.95h3.18q1.38 0 2.18.83.79.83.79 2.2 0 1.44-.76 2.22-.75.77-2.12.8zm0-1.07h1.92q.83 0 1.27-.5.45-.5.45-1.43 0-.9-.46-1.43-.46-.54-1.26-.54H29.6zM40.64 42.72q0-.74-.4-1.14-.4-.4-1.46-.77-1.05-.38-1.61-.79-.56-.41-.84-.94-.27-.53-.27-1.22 0-1.18.78-1.95.8-.76 2.08-.76.87 0 1.55.4.69.38 1.06 1.08.37.7.37 1.53h-1.26q0-.92-.45-1.43-.44-.5-1.27-.5-.76 0-1.18.42-.42.43-.42 1.2 0 .62.45 1.04.45.43 1.4.76 1.47.49 2.1 1.2.63.71.63 1.86 0 1.2-.78 1.94-.79.73-2.14.73-.87 0-1.61-.38-.73-.38-1.15-1.07-.42-.69-.42-1.58h1.26q0 .93.5 1.44.53.51 1.42.51.82 0 1.24-.42.42-.43.42-1.16zM49.54 36.37h-2.61v8.87h-1.26v-8.87h-2.6v-1.08h6.47zM55.99 40.64h-3.52v3.53h4.1v1.07h-5.35v-9.95h5.28v1.08h-4.03v3.2h3.52zM61.36 41.21h-1.75v4.03h-1.26v-9.95h2.8q1.45 0 2.2.76.76.76.76 2.23 0 .92-.41 1.61-.4.69-1.15 1.04l1.93 4.23v.08h-1.35zm-1.75-1.07h1.52q.78 0 1.25-.5.47-.51.47-1.36 0-1.91-1.74-1.91h-1.5z"/>
  </g>
  <g style="line-height:125%;-inkscape-font-specification:'Roboto Condensed, Light';font-variant-ligatures:normal;font-variant-caps:normal;font-variant-numeric:normal;font-feature-settings:normal;text-align:center" aria-label="COFFEE" font-family="Roboto Condensed" font-size="10" font-weight="300" letter-spacing="0" text-anchor="middle" word-spacing="0">
    <path style="-inkscape-font-specification:'Roboto Condensed, Light';font-variant-ligatures:normal;font-variant-caps:normal;font-variant-numeric:normal;font-feature-settings:normal;text-align:center" d="M29.5 54q-.07 1.14-.65 1.75-.58.6-1.65.6-1.07 0-1.7-.8-.63-.82-.63-2.21v-1.3q0-1.38.65-2.19.65-.8 1.77-.8 1.03 0 1.59.62.56.61.61 1.76h-.9q-.06-.87-.37-1.24-.3-.37-.93-.37-.73 0-1.12.57-.4.57-.4 1.67v1.3q0 1.08.37 1.66.36.57 1.06.57.7 0 1-.35.32-.34.39-1.24zM35.32 53.33q0 1.45-.62 2.24-.62.78-1.76.78-1.1 0-1.74-.76-.63-.77-.66-2.16v-1.34q0-1.43.63-2.23.63-.81 1.76-.81 1.12 0 1.75.77.63.78.64 2.21zm-.9-1.25q0-1.13-.36-1.67-.37-.56-1.13-.56-.74 0-1.12.56-.37.56-.38 1.64v1.28q0 1.08.38 1.66.38.57 1.13.57.75 0 1.11-.53.36-.53.38-1.62zM40.01 53.12h-2.4v3.14h-.9v-7.11h3.7v.77h-2.8v2.43H40zM44.81 53.12h-2.4v3.14h-.9v-7.11h3.71v.77h-2.8v2.43h2.4zM49.73 52.97h-2.51v2.52h2.93v.77h-3.83v-7.11h3.78v.77h-2.88v2.28h2.51zM54.7 52.97h-2.52v2.52h2.93v.77h-3.83v-7.11h3.78v.77h-2.88v2.28h2.51z"/>
  </g>
  <g style="line-height:125%;-inkscape-font-specification:'Roboto Condensed, Light';font-variant-ligatures:normal;font-variant-caps:normal;font-variant-numeric:normal;font-feature-settings:normal;text-align:center" aria-label="GENERIC" font-family="Roboto Condensed" font-size="10" font-weight="300" letter-spacing="-.29" text-anchor="middle" word-spacing="0">
    <path style="-inkscape-font-specification:'Roboto Condensed, Light';font-variant-ligatures:normal;font-variant-caps:normal;font-variant-numeric:normal;font-feature-settings:normal;text-align:center" d="M28.1 30.03l-.15.2q-.67.78-1.97.78-1.15 0-1.81-.76-.66-.77-.67-2.16v-1.4q0-1.5.6-2.23.6-.75 1.79-.75 1.01 0 1.58.56.58.57.64 1.62h-.9q-.05-.66-.37-1.03-.3-.38-.95-.38-.77 0-1.12.5-.36.5-.37 1.6v1.45q0 1.07.4 1.65.42.57 1.18.57.73 0 1.1-.35l.13-.12v-1.64h-1.3v-.76h2.2zM32.7 27.63h-2.52v2.52h2.93v.77H29.3V23.8h3.77v.77h-2.88v2.28h2.52zM38.6 30.92h-.9l-2.84-5.48v5.48h-.9V23.8h.9l2.85 5.5v-5.5h.9zM43.27 27.63h-2.52v2.52h2.93v.77h-3.82V23.8h3.77v.77h-2.88v2.28h2.52zM46.68 28.04h-1.25v2.88h-.9V23.8h2q1.04 0 1.58.54.53.54.53 1.6 0 .65-.3 1.15-.28.49-.81.73l1.38 3.03v.06h-.97zm-1.25-.77h1.08q.56 0 .9-.36.33-.36.33-.97 0-1.36-1.24-1.36h-1.07zM50.49 30.92h-.9V23.8h.9zM56.22 28.66q-.06 1.14-.64 1.75-.58.6-1.65.6-1.07 0-1.7-.8-.63-.82-.63-2.21v-1.3q0-1.38.65-2.19.65-.8 1.76-.8 1.03 0 1.6.62.56.61.61 1.76h-.9q-.06-.87-.37-1.24-.3-.37-.94-.37-.72 0-1.11.57-.4.57-.4 1.67v1.3q0 1.08.37 1.66.36.57 1.06.57.7 0 1-.35.31-.34.39-1.24z"/>
  </g>
  <g style="line-height:125%;-inkscape-font-specification:'Roboto Condensed, Light';font-variant-ligatures:normal;font-variant-caps:normal;font-variant-numeric:normal;font-feature-settings:normal;text-align:center" aria-label="EST. 2010" font-family="Roboto Condensed" font-size="3.33" font-weight="300" letter-spacing="0" text-anchor="middle" word-spacing="0">
    <path style="-inkscape-font-specification:'Roboto Condensed, Light';font-variant-ligatures:normal;font-variant-caps:normal;font-variant-numeric:normal;font-feature-settings:normal;text-align:center" d="M34.86 62.39h-.84v.84H35v.25h-1.27v-2.37h1.25v.26h-.96v.76h.84zM36.41 62.89q0-.18-.1-.28-.09-.1-.34-.18-.25-.09-.38-.19t-.2-.22q-.07-.13-.07-.3 0-.27.2-.46.18-.18.48-.18.21 0 .38.1.16.09.25.26.08.16.08.36h-.3q0-.22-.1-.34-.1-.12-.3-.12-.19 0-.29.1-.1.1-.1.28 0 .15.11.25t.33.18q.35.12.5.29.16.17.16.44 0 .29-.2.46-.18.18-.5.18-.2 0-.38-.1-.18-.08-.28-.25-.1-.16-.1-.37h.3q0 .22.12.34.13.12.34.12.2 0 .3-.1.1-.1.1-.27zM38.49 61.37h-.62v2.11h-.3v-2.1h-.62v-.27h1.54zM38.47 63.33q0-.08.05-.13.04-.06.14-.06.09 0 .14.06.04.05.04.13 0 .07-.04.12-.05.05-.14.05-.1 0-.14-.05-.05-.05-.05-.12zM41.4 63.48h-1.33v-.21l.67-.9q.15-.2.21-.34.06-.13.06-.28 0-.19-.08-.3-.1-.12-.24-.12-.18 0-.28.12-.1.13-.1.36h-.28q0-.32.18-.53.18-.2.48-.2.29 0 .45.18.16.17.16.46 0 .35-.36.83l-.53.69h.98zM42.98 62.47q0 .53-.15.79-.16.26-.48.26-.32 0-.48-.25-.15-.25-.16-.75v-.4q0-.53.15-.78.16-.26.48-.26.32 0 .48.24.15.25.16.74zm-.29-.4q0-.38-.08-.56-.08-.18-.27-.18-.17 0-.26.18-.08.17-.08.52v.5q0 .37.08.55.09.2.27.2.17 0 .26-.19.08-.17.08-.54zM44.22 63.48h-.3v-2l-.49.22v-.27l.74-.33h.05zM46.27 62.47q0 .53-.15.79t-.48.26q-.32 0-.47-.25-.16-.25-.17-.75v-.4q0-.53.16-.78.15-.26.48-.26.32 0 .47.24.16.25.16.74zm-.28-.4q0-.38-.09-.56-.08-.18-.26-.18t-.26.18q-.09.17-.09.52v.5q0 .37.09.55.08.2.26.2t.26-.19q.08-.17.09-.54z"/>
  </g>
</svg>
