<svg xmlns="http://www.w3.org/2000/svg" viewBox="0 0 80 80">
  <path fill="none" stroke="#000" stroke-width=".5" d="M13.18 47.02h53.64M13.18 32.98h53.64M6.22 40L40 6.37 73.78 40 40 73.63zM.39 40L40 .56 79.61 40 40 79.44z"/>
  <path d="M41.64 14.15a2.71 3.28 30 0 0-3.99 1.49 2.71 3.28 30 0 0 .22 3.8c.03-.39.12-.84.37-1.27.31-.5 1.03-.97 1.72-1.44.35-.24.7-.47.97-.7.28-.21.49-.42.57-.57.23-.45.2-.94.15-1.3a2.71 3.28 30 0 0-.01 0zm.44.34c0 .36-.03.77-.23 1.16-.13.25-.37.47-.67.7-.3.23-.64.47-.99.71-.7.47-1.4.98-1.6 1.32-.3.5-.34 1-.33 1.38a2.71 3.28 30 0 0 .1.07 2.71 3.28 30 0 0 3.99-1.48 2.71 3.28 30 0 0-.27-3.86z"/>
  <g font-family="Roboto Condensed" font-weight="300" letter-spacing="0" text-anchor="middle" word-spacing="0">
    <g aria-label="HIPSTER" font-size="14" letter-spacing=".19" style="line-height:125%;-inkscape-font-specification:'Roboto Condensed, Light';font-variant-ligatures:normal;font-variant-caps:normal;font-variant-numeric:normal;font-feature-settings:normal;text-align:center">
      <path d="M22.14 45.24h-.78v-4.77h-4.68v4.77h-.78v-9.95h.78v4.46h4.68v-4.46h.78zM25.63 45.24h-.78v-9.95h.78zM29.1 41.2v4.04h-.79v-9.95h2.9q1.32 0 2.07.79.76.8.76 2.18 0 1.41-.74 2.17-.73.76-2.1.76zm0-.74h2.1q.99 0 1.52-.57.54-.57.54-1.62 0-1.04-.54-1.64-.54-.6-1.5-.6h-2.13zM40.73 42.8q0-.84-.48-1.32-.47-.48-1.77-.92-1.3-.43-1.9-.97-.8-.7-.8-1.86 0-1.15.78-1.86.78-.72 2.03-.72 1.27 0 2.08.83.8.84.8 2.15h-.78q0-1-.57-1.62-.56-.62-1.53-.62-.95 0-1.5.51-.53.5-.53 1.31 0 .75.51 1.23t1.63.86q1.12.37 1.7.77.57.4.85.94.27.54.27 1.27 0 1.17-.8 1.88-.78.72-2.08.72-.87 0-1.6-.36-.72-.36-1.13-1.03-.4-.68-.4-1.6h.78q0 1.06.64 1.66.63.6 1.71.6.95 0 1.51-.5.58-.51.58-1.36zM49.18 36.02h-2.83v9.22h-.78v-9.22h-2.83v-.73h6.44zM55.62 40.47h-3.86v4.04h4.44v.73h-5.22v-9.95h5.19v.73h-4.41v3.73h3.86zM61.24 41.1H58.9v4.14h-.78v-9.95h2.72q1.36 0 2.11.77.75.78.75 2.16 0 .96-.46 1.7-.47.72-1.25 1l2.07 4.23v.09h-.84zm-2.33-.73H61q.88 0 1.4-.6.54-.6.54-1.55 0-1.05-.55-1.62-.55-.58-1.53-.58H58.9z" style="-inkscape-font-specification:'Roboto Condensed, Light';font-variant-ligatures:normal;font-variant-caps:normal;font-variant-numeric:normal;font-feature-settings:normal;text-align:center"/>
    </g>
    <g aria-label="COFFEE" font-size="10" style="line-height:125%;-inkscape-font-specification:'Roboto Condensed, Light';font-variant-ligatures:normal;font-variant-caps:normal;font-variant-numeric:normal;font-feature-settings:normal;text-align:center">
      <path d="M29.31 54.04q-.08 1.2-.64 1.76-.57.55-1.57.55-1.03 0-1.63-.77-.6-.78-.6-2.12V51.9q0-1.34.6-2.1.62-.76 1.67-.76 1 0 1.55.57.54.57.62 1.75h-.56q-.08-.96-.46-1.38-.38-.41-1.15-.41-.8 0-1.25.6-.45.6-.45 1.74v1.52q0 1.14.43 1.77.44.63 1.23.63.83 0 1.2-.42.37-.41.45-1.38zM35.12 53.47q0 1.38-.6 2.13t-1.7.75q-1.07 0-1.69-.75-.6-.75-.61-2.11v-1.55q0-1.37.6-2.13.62-.76 1.7-.76 1.1 0 1.7.76.6.76.6 2.14zm-.56-1.54q0-1.17-.45-1.75-.45-.59-1.3-.59-.8 0-1.27.58-.46.57-.47 1.71v1.6q0 1.16.47 1.75.46.6 1.29.6.85 0 1.29-.6.44-.58.44-1.76zM39.9 52.94h-2.73v3.32h-.56v-7.11h3.7v.52h-3.14v2.75h2.73zM44.8 52.94h-2.73v3.32h-.56v-7.11h3.7v.52h-3.14v2.75h2.73zM49.73 52.85h-2.76v2.89h3.18v.52h-3.73v-7.11h3.7v.52h-3.15v2.66h2.76zM54.71 52.85h-2.76v2.89h3.18v.52H51.4v-7.11h3.7v.52h-3.15v2.66h2.76z" style="-inkscape-font-specification:'Roboto Condensed, Light';font-variant-ligatures:normal;font-variant-caps:normal;font-variant-numeric:normal;font-feature-settings:normal;text-align:center"/>
    </g>
    <g aria-label="GENERIC" font-size="10" letter-spacing="-.29" style="line-height:125%;-inkscape-font-specification:'Roboto Condensed, Light';font-variant-ligatures:normal;font-variant-caps:normal;font-variant-numeric:normal;font-feature-settings:normal;text-align:center">
      <path d="M27.98 30.09q-.36.46-.9.7-.54.22-1.19.22-1.1 0-1.72-.73-.62-.73-.65-2.03v-1.73q0-1.36.6-2.08.59-.73 1.69-.73.98 0 1.54.54.55.54.62 1.56h-.56q-.08-.82-.48-1.2-.39-.37-1.12-.37-.87 0-1.3.58-.43.57-.43 1.7v1.63q0 1.11.47 1.73.48.62 1.34.62.93 0 1.52-.6v-1.85h-1.55v-.52h2.12zM32.6 27.51h-2.75v2.89h3.17v.52H29.3V23.8H33v.52h-3.14V27h2.76zM38.46 30.92h-.56l-3.36-6.06v6.06h-.56V23.8h.56l3.36 6.06v-6.06h.56zM43.18 27.51h-2.76v2.89h3.18v.52h-3.74V23.8h3.71v.52h-3.15V27h2.76zM46.77 27.96H45.1v2.96h-.56V23.8h1.94q.98 0 1.5.55.54.55.54 1.54 0 .69-.33 1.21t-.9.72l1.49 3.02v.07h-.6zm-1.66-.52h1.48q.63 0 1-.43.38-.44.38-1.1 0-.76-.39-1.17-.39-.4-1.1-.4h-1.37zM50.43 30.92h-.55V23.8h.55zM56.19 28.7q-.08 1.2-.65 1.76-.56.55-1.56.55-1.04 0-1.63-.77-.6-.78-.6-2.12v-1.55q0-1.34.6-2.1.61-.76 1.67-.76 1 0 1.54.57.55.57.63 1.75h-.57q-.08-.96-.46-1.38-.37-.41-1.14-.41-.8 0-1.26.6-.44.6-.44 1.74v1.52q0 1.14.43 1.77.43.63 1.23.63.83 0 1.2-.42.37-.41.44-1.38z" style="-inkscape-font-specification:'Roboto Condensed, Light';font-variant-ligatures:normal;font-variant-caps:normal;font-variant-numeric:normal;font-feature-settings:normal;text-align:center"/>
    </g>
    <g aria-label="EST. 2010" font-size="3.33" style="line-height:125%;-inkscape-font-specification:'Roboto Condensed, Light';font-variant-ligatures:normal;font-variant-caps:normal;font-variant-numeric:normal;font-feature-settings:normal;text-align:center">
      <path d="M34.95 62.35h-.92v.96h1.06v.17h-1.24v-2.37h1.23v.18h-1.05v.89h.92zM36.62 62.9q0-.2-.11-.31-.12-.11-.42-.22-.31-.1-.46-.23-.19-.17-.19-.44 0-.28.19-.45.19-.17.48-.17.3 0 .5.2.19.2.19.51h-.19q0-.24-.13-.38-.14-.15-.37-.15-.22 0-.35.12-.13.12-.13.31 0 .18.12.3.12.1.39.2.27.09.4.18.14.1.2.23.07.12.07.3 0 .28-.19.45-.19.17-.5.17-.2 0-.38-.09-.17-.08-.27-.24-.1-.16-.1-.38h.2q0 .25.15.4.15.13.4.13.23 0 .36-.12.14-.12.14-.32zM38.59 61.29h-.68v2.2h-.18v-2.2h-.67v-.18h1.53zM38.58 63.37q0-.06.03-.1.04-.04.1-.04.07 0 .1.04.04.04.04.1 0 .05-.03.09-.04.04-.1.04-.07 0-.1-.04-.04-.04-.04-.1zM41.36 63.48H40.1v-.15l.67-.9q.17-.24.24-.4.07-.15.07-.3 0-.22-.11-.35-.1-.13-.3-.13-.2 0-.32.15-.11.16-.11.4h-.18q0-.31.17-.51t.44-.2q.27 0 .43.16.16.17.16.47 0 .28-.26.66l-.1.15-.58.79h1.04zM42.93 62.5q0 .5-.16.76-.15.26-.45.26-.3 0-.46-.26-.16-.26-.16-.75v-.41q0-.5.15-.76.16-.26.46-.26.3 0 .46.25.15.26.16.74zm-.18-.43q0-.4-.11-.61-.1-.2-.33-.2-.2 0-.32.19-.1.2-.11.59v.48q0 .4.1.61.12.22.34.22.2 0 .31-.2.11-.21.12-.61zM44.12 63.48h-.19v-2.13l-.53.24v-.18l.68-.3h.04zM46.17 62.5q0 .5-.15.76-.16.26-.46.26-.3 0-.46-.26-.16-.26-.16-.75v-.41q0-.5.16-.76.15-.26.45-.26.3 0 .46.25.16.26.16.74zm-.18-.43q0-.4-.11-.61-.1-.2-.33-.2-.2 0-.32.19-.1.2-.11.59v.48q0 .4.11.61.11.22.33.22.2 0 .32-.2.1-.21.1-.61z" style="-inkscape-font-specification:'Roboto Condensed, Light';font-variant-ligatures:normal;font-variant-caps:normal;font-variant-numeric:normal;font-feature-settings:normal;text-align:center"/>
    </g>
  </g>
</svg>
