<?xml version="1.0" standalone="no"?>
<!DOCTYPE svg PUBLIC "-//W3C//DTD SVG 20010904//EN"
 "http://www.w3.org/TR/2001/REC-SVG-20010904/DTD/svg10.dtd">
<svg version="1.0" xmlns="http://www.w3.org/2000/svg"
 width="700.000000pt" height="700.000000pt" viewBox="0 0 700.000000 700.000000"
 preserveAspectRatio="xMidYMid meet">
<metadata>
Created by potrace 1.11, written by Peter Selinger 2001-2013
</metadata>
<g transform="translate(0.000000,700.000000) scale(0.100000,-0.100000)"
fill="#000000" stroke="none">
<path d="M3848 6815 c-2 -2 -32 -6 -68 -10 -36 -5 -72 -9 -80 -10 -19 -2 -123
-18 -130 -20 -3 -1 -25 -5 -50 -9 -25 -4 -81 -17 -125 -28 -44 -11 -87 -21
-96 -23 -39 -8 -173 -50 -279 -87 -291 -103 -602 -262 -855 -436 -87 -60 -248
-180 -280 -209 -11 -10 -47 -40 -80 -68 -71 -59 -321 -307 -389 -385 -122
-142 -305 -394 -381 -525 -16 -27 -40 -68 -53 -90 -102 -178 -240 -491 -309
-705 -32 -99 -89 -304 -98 -353 -3 -12 -12 -56 -20 -97 -23 -113 -33 -172 -40
-241 -4 -42 -17 -142 -20 -160 -6 -29 -18 -269 -18 -349 0 -97 12 -378 17
-410 2 -14 8 -52 11 -85 10 -82 12 -91 25 -165 6 -36 13 -78 16 -95 15 -87
106 -409 134 -470 5 -11 21 -51 36 -90 66 -174 205 -424 322 -578 63 -83 185
-227 190 -223 1 2 4 23 7 47 2 24 6 60 9 79 3 19 8 58 11 85 11 86 16 119 20
135 2 8 7 31 10 50 48 287 158 611 287 848 229 420 597 759 1478 1361 166 113
442 302 470 321 129 88 558 384 575 397 12 10 33 25 45 33 29 20 122 87 135
98 6 4 46 35 90 67 44 33 82 62 85 65 3 3 28 23 55 45 28 21 52 42 55 45 3 3
43 38 90 77 148 124 291 270 381 388 34 45 129 222 129 240 0 4 6 21 14 38 16
36 54 151 62 188 48 227 58 310 58 519 0 170 -12 356 -29 445 -2 11 -4 28 -4
38 -1 23 -214 128 -374 185 -255 90 -466 124 -794 128 -133 1 -243 1 -245 -1z"/>
<path d="M5720 6160 c-1 -3 -3 -75 -5 -160 -4 -185 -15 -318 -40 -450 -3 -14
-7 -41 -10 -60 -14 -84 -74 -292 -96 -332 -5 -10 -9 -22 -9 -28 0 -20 -109
-237 -151 -300 -97 -146 -283 -346 -461 -493 -24 -19 -72 -59 -107 -88 -62
-52 -357 -279 -401 -309 -12 -8 -57 -41 -100 -72 -69 -50 -165 -116 -535 -371
-44 -31 -138 -95 -208 -143 -71 -48 -137 -95 -147 -103 -11 -9 -63 -45 -115
-81 -208 -140 -702 -506 -780 -577 -11 -10 -43 -36 -70 -58 -128 -103 -354
-326 -426 -420 -142 -187 -269 -482 -339 -785 -15 -69 -31 -150 -35 -180 -4
-30 -8 -57 -10 -60 -2 -3 -6 -43 -9 -90 -4 -47 -9 -101 -11 -120 -4 -31 -9
-297 -6 -326 3 -30 253 -165 422 -228 169 -63 402 -116 579 -134 99 -9 444 -9
545 1 94 9 121 13 235 33 81 15 96 18 147 28 67 14 263 70 366 106 454 156
898 415 1267 739 637 560 1065 1303 1236 2146 10 47 33 194 40 245 4 30 8 66
10 80 3 25 10 100 19 215 17 199 2 555 -31 768 -33 217 -58 325 -116 512 -97
316 -235 590 -422 839 -76 101 -224 268 -226 256z"/>
</g>
</svg>
